<?xml version="1.0" standalone="no"?>
<!DOCTYPE svg PUBLIC "-//W3C//DTD SVG 20010904//EN"
 "http://www.w3.org/TR/2001/REC-SVG-20010904/DTD/svg10.dtd">
<svg version="1.0" xmlns="http://www.w3.org/2000/svg"
 width="512.000000pt" height="512.000000pt" viewBox="0 0 512.000000 512.000000"
 preserveAspectRatio="xMidYMid meet">

<g transform="translate(0.000000,512.000000) scale(0.100000,-0.100000)"
fill="#000000" stroke="none">
<path d="M2480 4807 c-55 -15 -105 -45 -142 -84 -45 -47 -1211 -2074 -1211
-2105 0 -15 8 -37 18 -47 17 -20 14 -25 -85 -198 l-103 -178 -36 3 c-28 3 -41
-2 -57 -20 -37 -40 -828 -1420 -847 -1478 -48 -139 22 -299 161 -367 l57 -28
2325 0 2325 0 57 28 c139 68 209 228 161 367 -19 56 -811 1439 -844 1474 -10
11 -32 19 -55 20 l-37 1 -98 170 c-55 93 -99 174 -99 178 0 5 7 15 15 23 8 9
15 27 15 41 0 31 -1169 2060 -1218 2115 -69 76 -202 113 -302 85z m1019 -2382
l930 -1610 -935 -3 c-514 -1 -1355 -1 -1869 0 l-934 3 931 1613 c512 887 935
1611 939 1610 5 -2 427 -727 938 -1613z"/>
<path d="M2455 3465 c-23 -8 -58 -33 -82 -60 -65 -71 -67 -91 -54 -516 6 -200
16 -548 22 -774 8 -316 14 -420 26 -453 35 -99 174 -142 289 -88 87 40 98 65
106 241 11 217 38 1120 40 1320 2 159 0 174 -21 218 -40 82 -120 127 -223 127
-35 -1 -81 -7 -103 -15z"/>
<path d="M2472 1441 c-109 -38 -175 -130 -176 -246 0 -81 18 -130 71 -187 50
-53 127 -88 193 -88 97 0 208 75 247 168 22 51 22 147 0 204 -25 64 -99 132
-168 152 -67 20 -101 20 -167 -3z"/>
</g>
</svg>
